<mxfile host="app.diagrams.net" modified="2023-12-21T04:46:28.719Z" agent="Mozilla/5.0 (Windows NT 10.0; Win64; x64) AppleWebKit/537.36 (KHTML, like Gecko) Chrome/120.0.0.0 Safari/537.36 Edg/120.0.0.0" etag="NuGeqXjH9gwN1pBiaY6L" version="22.1.11" type="device">
  <diagram id="lJin0u_wzduE8NEtxDTv" name="第 1 页">
    <mxGraphModel dx="3137" dy="1282" grid="1" gridSize="10" guides="1" tooltips="1" connect="1" arrows="1" fold="1" page="1" pageScale="1" pageWidth="827" pageHeight="1169" math="0" shadow="0">
      <root>
        <mxCell id="0" />
        <mxCell id="1" parent="0" />
        <mxCell id="Z09jLC2L3iIakokJi3eF-1" value="&lt;font style=&quot;font-size: 14px;&quot;&gt;&lt;b&gt;Pharmacist&lt;/b&gt;&lt;/font&gt;" style="shape=umlActor;verticalLabelPosition=bottom;verticalAlign=top;html=1;outlineConnect=0;" parent="1" vertex="1">
          <mxGeometry x="40" y="30" width="30" height="60" as="geometry" />
        </mxCell>
        <mxCell id="VMwAUEF3YJHCVkDwJJzr-1" value="&lt;b&gt;&lt;font style=&quot;font-size: 14px;&quot;&gt;Prescription&lt;/font&gt;&lt;/b&gt;" style="rounded=0;whiteSpace=wrap;html=1;" parent="1" vertex="1">
          <mxGeometry x="200" y="40" width="120" height="60" as="geometry" />
        </mxCell>
        <mxCell id="VMwAUEF3YJHCVkDwJJzr-2" value="&lt;b&gt;&lt;font style=&quot;font-size: 14px;&quot;&gt;Patient&lt;/font&gt;&lt;/b&gt;" style="rounded=0;whiteSpace=wrap;html=1;" parent="1" vertex="1">
          <mxGeometry x="600" y="40" width="120" height="60" as="geometry" />
        </mxCell>
        <mxCell id="VMwAUEF3YJHCVkDwJJzr-3" value="&lt;font style=&quot;font-size: 14px;&quot;&gt;&lt;b&gt;Drug warehouse&lt;/b&gt;&lt;/font&gt;" style="rounded=0;whiteSpace=wrap;html=1;" parent="1" vertex="1">
          <mxGeometry x="400" y="40" width="120" height="60" as="geometry" />
        </mxCell>
        <mxCell id="VMwAUEF3YJHCVkDwJJzr-5" value="&lt;b&gt;&lt;font style=&quot;font-size: 14px;&quot;&gt;Pharmacist system&lt;/font&gt;&lt;/b&gt;" style="rounded=0;whiteSpace=wrap;html=1;" parent="1" vertex="1">
          <mxGeometry x="800" y="40" width="120" height="60" as="geometry" />
        </mxCell>
        <mxCell id="VMwAUEF3YJHCVkDwJJzr-6" value="" style="endArrow=none;dashed=1;html=1;rounded=0;" parent="1" target="Z09jLC2L3iIakokJi3eF-1" edge="1">
          <mxGeometry width="50" height="50" relative="1" as="geometry">
            <mxPoint x="55" y="160" as="sourcePoint" />
            <mxPoint x="60" y="120" as="targetPoint" />
          </mxGeometry>
        </mxCell>
        <mxCell id="VMwAUEF3YJHCVkDwJJzr-7" value="" style="endArrow=none;dashed=1;html=1;rounded=0;entryX=0.5;entryY=1;entryDx=0;entryDy=0;" parent="1" target="VMwAUEF3YJHCVkDwJJzr-1" edge="1">
          <mxGeometry width="50" height="50" relative="1" as="geometry">
            <mxPoint x="260" y="160" as="sourcePoint" />
            <mxPoint x="540" y="440" as="targetPoint" />
          </mxGeometry>
        </mxCell>
        <mxCell id="VMwAUEF3YJHCVkDwJJzr-8" value="" style="rounded=0;whiteSpace=wrap;html=1;direction=south;" parent="1" vertex="1">
          <mxGeometry x="450" y="570" width="20" height="100" as="geometry" />
        </mxCell>
        <mxCell id="VMwAUEF3YJHCVkDwJJzr-9" value="" style="rounded=0;whiteSpace=wrap;html=1;direction=south;" parent="1" vertex="1">
          <mxGeometry x="250" y="140" width="20" height="50" as="geometry" />
        </mxCell>
        <mxCell id="VMwAUEF3YJHCVkDwJJzr-10" value="" style="rounded=0;whiteSpace=wrap;html=1;direction=south;" parent="1" vertex="1">
          <mxGeometry x="45" y="140" width="20" height="50" as="geometry" />
        </mxCell>
        <mxCell id="VMwAUEF3YJHCVkDwJJzr-12" value="requestPrescription（）" style="html=1;verticalAlign=bottom;endArrow=block;curved=0;rounded=0;exitX=0.5;exitY=1;exitDx=0;exitDy=0;entryX=0.5;entryY=0;entryDx=0;entryDy=0;" parent="1" source="VMwAUEF3YJHCVkDwJJzr-9" target="VMwAUEF3YJHCVkDwJJzr-10" edge="1">
          <mxGeometry width="80" relative="1" as="geometry">
            <mxPoint x="250" y="190" as="sourcePoint" />
            <mxPoint x="90" y="185" as="targetPoint" />
          </mxGeometry>
        </mxCell>
        <mxCell id="VMwAUEF3YJHCVkDwJJzr-13" value="" style="endArrow=none;dashed=1;html=1;rounded=0;entryX=1;entryY=0.5;entryDx=0;entryDy=0;" parent="1" target="VMwAUEF3YJHCVkDwJJzr-10" edge="1">
          <mxGeometry width="50" height="50" relative="1" as="geometry">
            <mxPoint x="55" y="320" as="sourcePoint" />
            <mxPoint x="60" y="240" as="targetPoint" />
          </mxGeometry>
        </mxCell>
        <mxCell id="VMwAUEF3YJHCVkDwJJzr-19" value="" style="curved=1;endArrow=classic;html=1;rounded=0;" parent="1" edge="1">
          <mxGeometry width="50" height="50" relative="1" as="geometry">
            <mxPoint x="60" y="210" as="sourcePoint" />
            <mxPoint x="60" y="270" as="targetPoint" />
            <Array as="points">
              <mxPoint x="120" y="240" />
            </Array>
          </mxGeometry>
        </mxCell>
        <mxCell id="VMwAUEF3YJHCVkDwJJzr-20" value="checkPrescription（）" style="text;html=1;strokeColor=none;fillColor=none;align=center;verticalAlign=middle;whiteSpace=wrap;rounded=0;" parent="1" vertex="1">
          <mxGeometry x="45" y="230" width="140" height="20" as="geometry" />
        </mxCell>
        <mxCell id="VMwAUEF3YJHCVkDwJJzr-24" value="" style="rounded=0;whiteSpace=wrap;html=1;direction=south;" parent="1" vertex="1">
          <mxGeometry x="45" y="310" width="20" height="150" as="geometry" />
        </mxCell>
        <mxCell id="VMwAUEF3YJHCVkDwJJzr-25" value="" style="rounded=0;whiteSpace=wrap;html=1;direction=south;" parent="1" vertex="1">
          <mxGeometry x="250" y="310" width="20" height="60" as="geometry" />
        </mxCell>
        <mxCell id="VMwAUEF3YJHCVkDwJJzr-26" value="" style="endArrow=none;dashed=1;html=1;rounded=0;exitX=1;exitY=0.5;exitDx=0;exitDy=0;entryX=0;entryY=0.5;entryDx=0;entryDy=0;" parent="1" source="VMwAUEF3YJHCVkDwJJzr-9" target="VMwAUEF3YJHCVkDwJJzr-25" edge="1">
          <mxGeometry width="50" height="50" relative="1" as="geometry">
            <mxPoint x="490" y="320" as="sourcePoint" />
            <mxPoint x="260" y="290" as="targetPoint" />
          </mxGeometry>
        </mxCell>
        <mxCell id="VMwAUEF3YJHCVkDwJJzr-28" value="refusePrescription（）" style="html=1;verticalAlign=bottom;endArrow=block;curved=0;rounded=0;entryX=0.5;entryY=1;entryDx=0;entryDy=0;exitX=0.2;exitY=-0.25;exitDx=0;exitDy=0;exitPerimeter=0;" parent="1" source="VMwAUEF3YJHCVkDwJJzr-24" target="VMwAUEF3YJHCVkDwJJzr-25" edge="1">
          <mxGeometry width="80" relative="1" as="geometry">
            <mxPoint x="80" y="350" as="sourcePoint" />
            <mxPoint x="220" y="350" as="targetPoint" />
          </mxGeometry>
        </mxCell>
        <mxCell id="VMwAUEF3YJHCVkDwJJzr-30" value="" style="endArrow=none;dashed=1;html=1;rounded=0;entryX=0.5;entryY=1;entryDx=0;entryDy=0;exitX=0;exitY=0.5;exitDx=0;exitDy=0;" parent="1" source="VMwAUEF3YJHCVkDwJJzr-31" target="VMwAUEF3YJHCVkDwJJzr-3" edge="1">
          <mxGeometry width="50" height="50" relative="1" as="geometry">
            <mxPoint x="460" y="360" as="sourcePoint" />
            <mxPoint x="590" y="330" as="targetPoint" />
          </mxGeometry>
        </mxCell>
        <mxCell id="VMwAUEF3YJHCVkDwJJzr-31" value="" style="rounded=0;whiteSpace=wrap;html=1;direction=south;" parent="1" vertex="1">
          <mxGeometry x="450" y="400" width="20" height="60" as="geometry" />
        </mxCell>
        <mxCell id="VMwAUEF3YJHCVkDwJJzr-35" value="Alt" style="shape=umlFrame;whiteSpace=wrap;html=1;pointerEvents=0;dashed=1;" parent="1" vertex="1">
          <mxGeometry x="-90" y="280" width="1150" height="1130" as="geometry" />
        </mxCell>
        <mxCell id="VMwAUEF3YJHCVkDwJJzr-37" value="&lt;b&gt;[Incorrect prescription]&lt;/b&gt;" style="text;html=1;strokeColor=none;fillColor=none;align=center;verticalAlign=middle;whiteSpace=wrap;rounded=0;" parent="1" vertex="1">
          <mxGeometry x="270" y="290" width="160" height="20" as="geometry" />
        </mxCell>
        <mxCell id="VMwAUEF3YJHCVkDwJJzr-38" value="&lt;b&gt;[correct prescription]&lt;/b&gt;" style="text;html=1;strokeColor=none;fillColor=none;align=center;verticalAlign=middle;whiteSpace=wrap;rounded=0;" parent="1" vertex="1">
          <mxGeometry x="280" y="390" width="140" height="20" as="geometry" />
        </mxCell>
        <mxCell id="VMwAUEF3YJHCVkDwJJzr-39" value="" style="endArrow=classic;html=1;rounded=0;entryX=0.75;entryY=1;entryDx=0;entryDy=0;exitX=0.908;exitY=-0.026;exitDx=0;exitDy=0;exitPerimeter=0;" parent="1" source="VMwAUEF3YJHCVkDwJJzr-24" target="VMwAUEF3YJHCVkDwJJzr-31" edge="1">
          <mxGeometry width="50" height="50" relative="1" as="geometry">
            <mxPoint x="100" y="450" as="sourcePoint" />
            <mxPoint x="590" y="470" as="targetPoint" />
          </mxGeometry>
        </mxCell>
        <mxCell id="VMwAUEF3YJHCVkDwJJzr-40" value="getMedicationList()" style="text;html=1;strokeColor=none;fillColor=none;align=center;verticalAlign=middle;whiteSpace=wrap;rounded=0;" parent="1" vertex="1">
          <mxGeometry x="200" y="430" width="125" height="20" as="geometry" />
        </mxCell>
        <mxCell id="VMwAUEF3YJHCVkDwJJzr-41" value="" style="endArrow=none;dashed=1;html=1;rounded=0;entryX=1;entryY=0.5;entryDx=0;entryDy=0;exitX=0;exitY=0.5;exitDx=0;exitDy=0;" parent="1" source="VMwAUEF3YJHCVkDwJJzr-43" target="VMwAUEF3YJHCVkDwJJzr-24" edge="1">
          <mxGeometry width="50" height="50" relative="1" as="geometry">
            <mxPoint x="540" y="520" as="sourcePoint" />
            <mxPoint x="590" y="470" as="targetPoint" />
          </mxGeometry>
        </mxCell>
        <mxCell id="VMwAUEF3YJHCVkDwJJzr-43" value="" style="rounded=0;whiteSpace=wrap;html=1;direction=south;" parent="1" vertex="1">
          <mxGeometry x="45" y="570" width="20" height="100" as="geometry" />
        </mxCell>
        <mxCell id="VMwAUEF3YJHCVkDwJJzr-46" value="" style="endArrow=none;dashed=1;html=1;rounded=0;entryX=1;entryY=0.5;entryDx=0;entryDy=0;exitX=0;exitY=0.5;exitDx=0;exitDy=0;" parent="1" source="VMwAUEF3YJHCVkDwJJzr-8" target="VMwAUEF3YJHCVkDwJJzr-31" edge="1">
          <mxGeometry width="50" height="50" relative="1" as="geometry">
            <mxPoint x="540" y="520" as="sourcePoint" />
            <mxPoint x="590" y="470" as="targetPoint" />
          </mxGeometry>
        </mxCell>
        <mxCell id="VMwAUEF3YJHCVkDwJJzr-47" value="" style="curved=1;endArrow=classic;html=1;rounded=0;" parent="1" edge="1">
          <mxGeometry width="50" height="50" relative="1" as="geometry">
            <mxPoint x="460" y="475" as="sourcePoint" />
            <mxPoint x="460" y="535" as="targetPoint" />
            <Array as="points">
              <mxPoint x="520" y="505" />
            </Array>
          </mxGeometry>
        </mxCell>
        <mxCell id="VMwAUEF3YJHCVkDwJJzr-48" value="checkStock()" style="text;html=1;strokeColor=none;fillColor=none;align=center;verticalAlign=middle;whiteSpace=wrap;rounded=0;" parent="1" vertex="1">
          <mxGeometry x="460" y="500" width="60" height="10" as="geometry" />
        </mxCell>
        <mxCell id="VMwAUEF3YJHCVkDwJJzr-52" style="edgeStyle=none;rounded=0;orthogonalLoop=1;jettySize=auto;html=1;exitX=0.5;exitY=1;exitDx=0;exitDy=0;" parent="1" source="VMwAUEF3YJHCVkDwJJzr-8" target="VMwAUEF3YJHCVkDwJJzr-8" edge="1">
          <mxGeometry relative="1" as="geometry" />
        </mxCell>
        <mxCell id="VMwAUEF3YJHCVkDwJJzr-53" value="Alt" style="shape=umlFrame;whiteSpace=wrap;html=1;pointerEvents=0;dashed=1;" parent="1" vertex="1">
          <mxGeometry x="-70" y="550" width="1110" height="840" as="geometry" />
        </mxCell>
        <mxCell id="VMwAUEF3YJHCVkDwJJzr-54" value="[understock]" style="text;html=1;strokeColor=none;fillColor=none;align=center;verticalAlign=middle;whiteSpace=wrap;rounded=0;fontStyle=1" parent="1" vertex="1">
          <mxGeometry x="310" y="560" width="80" height="15" as="geometry" />
        </mxCell>
        <mxCell id="VMwAUEF3YJHCVkDwJJzr-55" value="" style="endArrow=classic;html=1;rounded=0;exitX=0.33;exitY=1;exitDx=0;exitDy=0;exitPerimeter=0;entryX=0.32;entryY=0;entryDx=0;entryDy=0;entryPerimeter=0;" parent="1" source="VMwAUEF3YJHCVkDwJJzr-8" target="VMwAUEF3YJHCVkDwJJzr-43" edge="1">
          <mxGeometry width="50" height="50" relative="1" as="geometry">
            <mxPoint x="90" y="600" as="sourcePoint" />
            <mxPoint x="90" y="603" as="targetPoint" />
          </mxGeometry>
        </mxCell>
        <mxCell id="VMwAUEF3YJHCVkDwJJzr-56" value="purchaseDetails()" style="text;html=1;strokeColor=none;fillColor=none;align=center;verticalAlign=middle;whiteSpace=wrap;rounded=0;" parent="1" vertex="1">
          <mxGeometry x="200" y="585" width="130" height="20" as="geometry" />
        </mxCell>
        <mxCell id="VMwAUEF3YJHCVkDwJJzr-57" value="" style="endArrow=classic;html=1;rounded=0;entryX=0.807;entryY=0.975;entryDx=0;entryDy=0;entryPerimeter=0;exitX=0.82;exitY=-0.2;exitDx=0;exitDy=0;exitPerimeter=0;" parent="1" source="VMwAUEF3YJHCVkDwJJzr-43" target="VMwAUEF3YJHCVkDwJJzr-8" edge="1">
          <mxGeometry width="50" height="50" relative="1" as="geometry">
            <mxPoint x="90" y="651" as="sourcePoint" />
            <mxPoint x="450" y="640" as="targetPoint" />
          </mxGeometry>
        </mxCell>
        <mxCell id="VMwAUEF3YJHCVkDwJJzr-58" value="selectMedication()" style="text;html=1;strokeColor=none;fillColor=none;align=center;verticalAlign=middle;whiteSpace=wrap;rounded=0;" parent="1" vertex="1">
          <mxGeometry x="210" y="630" width="110" height="20" as="geometry" />
        </mxCell>
        <mxCell id="VMwAUEF3YJHCVkDwJJzr-60" value="[adequate stock]" style="text;html=1;strokeColor=none;fillColor=none;align=center;verticalAlign=middle;whiteSpace=wrap;rounded=0;fontStyle=1" parent="1" vertex="1">
          <mxGeometry x="308" y="690" width="106" height="20" as="geometry" />
        </mxCell>
        <mxCell id="VMwAUEF3YJHCVkDwJJzr-61" value="" style="endArrow=none;dashed=1;html=1;rounded=0;entryX=1;entryY=0.5;entryDx=0;entryDy=0;exitX=0;exitY=0.5;exitDx=0;exitDy=0;" parent="1" source="VMwAUEF3YJHCVkDwJJzr-62" target="VMwAUEF3YJHCVkDwJJzr-43" edge="1">
          <mxGeometry width="50" height="50" relative="1" as="geometry">
            <mxPoint x="410" y="760" as="sourcePoint" />
            <mxPoint x="460" y="710" as="targetPoint" />
          </mxGeometry>
        </mxCell>
        <mxCell id="VMwAUEF3YJHCVkDwJJzr-62" value="" style="rounded=0;whiteSpace=wrap;html=1;direction=south;" parent="1" vertex="1">
          <mxGeometry x="45" y="710" width="20" height="80" as="geometry" />
        </mxCell>
        <mxCell id="VMwAUEF3YJHCVkDwJJzr-63" value="" style="rounded=0;whiteSpace=wrap;html=1;direction=south;" parent="1" vertex="1">
          <mxGeometry x="450" y="710" width="20" height="80" as="geometry" />
        </mxCell>
        <mxCell id="VMwAUEF3YJHCVkDwJJzr-64" value="" style="endArrow=none;dashed=1;html=1;rounded=0;exitX=0;exitY=0.5;exitDx=0;exitDy=0;" parent="1" source="VMwAUEF3YJHCVkDwJJzr-63" edge="1">
          <mxGeometry width="50" height="50" relative="1" as="geometry">
            <mxPoint x="410" y="660" as="sourcePoint" />
            <mxPoint x="460" y="670" as="targetPoint" />
          </mxGeometry>
        </mxCell>
        <mxCell id="VMwAUEF3YJHCVkDwJJzr-65" value="" style="endArrow=classic;html=1;rounded=0;exitX=0.5;exitY=0;exitDx=0;exitDy=0;entryX=0.5;entryY=1;entryDx=0;entryDy=0;" parent="1" source="VMwAUEF3YJHCVkDwJJzr-62" target="VMwAUEF3YJHCVkDwJJzr-63" edge="1">
          <mxGeometry width="50" height="50" relative="1" as="geometry">
            <mxPoint x="410" y="660" as="sourcePoint" />
            <mxPoint x="460" y="610" as="targetPoint" />
          </mxGeometry>
        </mxCell>
        <mxCell id="VMwAUEF3YJHCVkDwJJzr-66" value="selectMedication()" style="text;html=1;strokeColor=none;fillColor=none;align=center;verticalAlign=middle;whiteSpace=wrap;rounded=0;" parent="1" vertex="1">
          <mxGeometry x="207.5" y="730" width="110" height="20" as="geometry" />
        </mxCell>
        <mxCell id="VMwAUEF3YJHCVkDwJJzr-67" value="" style="endArrow=none;dashed=1;html=1;rounded=0;entryX=1;entryY=0.5;entryDx=0;entryDy=0;exitX=0;exitY=0.5;exitDx=0;exitDy=0;" parent="1" source="VMwAUEF3YJHCVkDwJJzr-68" target="VMwAUEF3YJHCVkDwJJzr-62" edge="1">
          <mxGeometry width="50" height="50" relative="1" as="geometry">
            <mxPoint x="270" y="910" as="sourcePoint" />
            <mxPoint x="460" y="910" as="targetPoint" />
          </mxGeometry>
        </mxCell>
        <mxCell id="VMwAUEF3YJHCVkDwJJzr-68" value="" style="rounded=0;whiteSpace=wrap;html=1;direction=south;" parent="1" vertex="1">
          <mxGeometry x="45" y="820" width="20" height="80" as="geometry" />
        </mxCell>
        <mxCell id="VMwAUEF3YJHCVkDwJJzr-69" value="" style="rounded=0;whiteSpace=wrap;html=1;direction=south;" parent="1" vertex="1">
          <mxGeometry x="650" y="820" width="20" height="80" as="geometry" />
        </mxCell>
        <mxCell id="VMwAUEF3YJHCVkDwJJzr-70" value="" style="endArrow=none;dashed=1;html=1;rounded=0;entryX=0.5;entryY=1;entryDx=0;entryDy=0;exitX=0;exitY=0.5;exitDx=0;exitDy=0;" parent="1" source="VMwAUEF3YJHCVkDwJJzr-69" target="VMwAUEF3YJHCVkDwJJzr-2" edge="1">
          <mxGeometry width="50" height="50" relative="1" as="geometry">
            <mxPoint x="410" y="660" as="sourcePoint" />
            <mxPoint x="460" y="610" as="targetPoint" />
          </mxGeometry>
        </mxCell>
        <mxCell id="VMwAUEF3YJHCVkDwJJzr-71" value="" style="endArrow=classic;html=1;rounded=0;exitX=0.5;exitY=0;exitDx=0;exitDy=0;entryX=0.488;entryY=1.3;entryDx=0;entryDy=0;entryPerimeter=0;" parent="1" source="VMwAUEF3YJHCVkDwJJzr-68" target="VMwAUEF3YJHCVkDwJJzr-69" edge="1">
          <mxGeometry width="50" height="50" relative="1" as="geometry">
            <mxPoint x="410" y="780" as="sourcePoint" />
            <mxPoint x="460" y="730" as="targetPoint" />
          </mxGeometry>
        </mxCell>
        <mxCell id="VMwAUEF3YJHCVkDwJJzr-72" value="UpdatePrescription()" style="text;html=1;strokeColor=none;fillColor=none;align=center;verticalAlign=middle;whiteSpace=wrap;rounded=0;" parent="1" vertex="1">
          <mxGeometry x="306" y="830" width="127" height="30" as="geometry" />
        </mxCell>
        <mxCell id="VMwAUEF3YJHCVkDwJJzr-74" value="" style="rounded=0;whiteSpace=wrap;html=1;direction=south;" parent="1" vertex="1">
          <mxGeometry x="650" y="1020" width="20" height="80" as="geometry" />
        </mxCell>
        <mxCell id="VMwAUEF3YJHCVkDwJJzr-75" value="" style="rounded=0;whiteSpace=wrap;html=1;direction=south;" parent="1" vertex="1">
          <mxGeometry x="45" y="1020" width="20" height="80" as="geometry" />
        </mxCell>
        <mxCell id="VMwAUEF3YJHCVkDwJJzr-76" value="" style="endArrow=none;dashed=1;html=1;rounded=0;entryX=1;entryY=0.5;entryDx=0;entryDy=0;exitX=0;exitY=0.5;exitDx=0;exitDy=0;" parent="1" source="VMwAUEF3YJHCVkDwJJzr-75" target="VMwAUEF3YJHCVkDwJJzr-68" edge="1">
          <mxGeometry width="50" height="50" relative="1" as="geometry">
            <mxPoint x="410" y="1010" as="sourcePoint" />
            <mxPoint x="460" y="960" as="targetPoint" />
          </mxGeometry>
        </mxCell>
        <mxCell id="VMwAUEF3YJHCVkDwJJzr-77" value="" style="endArrow=none;dashed=1;html=1;rounded=0;entryX=1;entryY=0.5;entryDx=0;entryDy=0;exitX=0;exitY=0.5;exitDx=0;exitDy=0;" parent="1" source="VMwAUEF3YJHCVkDwJJzr-74" target="VMwAUEF3YJHCVkDwJJzr-69" edge="1">
          <mxGeometry width="50" height="50" relative="1" as="geometry">
            <mxPoint x="410" y="1010" as="sourcePoint" />
            <mxPoint x="460" y="960" as="targetPoint" />
          </mxGeometry>
        </mxCell>
        <mxCell id="VMwAUEF3YJHCVkDwJJzr-79" value="" style="curved=1;endArrow=classic;html=1;rounded=0;" parent="1" edge="1">
          <mxGeometry width="50" height="50" relative="1" as="geometry">
            <mxPoint x="660" y="910" as="sourcePoint" />
            <mxPoint x="660" y="970" as="targetPoint" />
            <Array as="points">
              <mxPoint x="720" y="940" />
            </Array>
          </mxGeometry>
        </mxCell>
        <mxCell id="VMwAUEF3YJHCVkDwJJzr-80" value="checkPrescription（）" style="text;html=1;strokeColor=none;fillColor=none;align=center;verticalAlign=middle;whiteSpace=wrap;rounded=0;" parent="1" vertex="1">
          <mxGeometry x="640" y="930" width="140" height="20" as="geometry" />
        </mxCell>
        <mxCell id="VMwAUEF3YJHCVkDwJJzr-81" value="Alt" style="shape=umlFrame;whiteSpace=wrap;html=1;pointerEvents=0;dashed=1;" parent="1" vertex="1">
          <mxGeometry x="-50" y="980" width="1070" height="390" as="geometry" />
        </mxCell>
        <mxCell id="VMwAUEF3YJHCVkDwJJzr-82" value="" style="endArrow=classic;html=1;rounded=0;entryX=0.25;entryY=0;entryDx=0;entryDy=0;exitX=0.25;exitY=1;exitDx=0;exitDy=0;dashed=1;" parent="1" source="VMwAUEF3YJHCVkDwJJzr-74" target="VMwAUEF3YJHCVkDwJJzr-75" edge="1">
          <mxGeometry width="50" height="50" relative="1" as="geometry">
            <mxPoint x="610" y="1130" as="sourcePoint" />
            <mxPoint x="460" y="1000" as="targetPoint" />
          </mxGeometry>
        </mxCell>
        <mxCell id="VMwAUEF3YJHCVkDwJJzr-83" value="return" style="text;html=1;strokeColor=none;fillColor=none;align=center;verticalAlign=middle;whiteSpace=wrap;rounded=0;" parent="1" vertex="1">
          <mxGeometry x="336.5" y="1020" width="70" height="11" as="geometry" />
        </mxCell>
        <mxCell id="VMwAUEF3YJHCVkDwJJzr-84" value="&lt;b&gt;[User unconfirmed]&lt;/b&gt;" style="text;html=1;strokeColor=none;fillColor=none;align=center;verticalAlign=middle;whiteSpace=wrap;rounded=0;" parent="1" vertex="1">
          <mxGeometry x="460" y="990" width="136" height="20" as="geometry" />
        </mxCell>
        <mxCell id="VMwAUEF3YJHCVkDwJJzr-85" value="&lt;b&gt;[User confirmation]&lt;/b&gt;" style="text;html=1;strokeColor=none;fillColor=none;align=center;verticalAlign=middle;whiteSpace=wrap;rounded=0;" parent="1" vertex="1">
          <mxGeometry x="463" y="1130" width="130" height="20" as="geometry" />
        </mxCell>
        <mxCell id="VMwAUEF3YJHCVkDwJJzr-86" value="" style="rounded=0;whiteSpace=wrap;html=1;direction=south;" parent="1" vertex="1">
          <mxGeometry x="45" y="1160" width="20" height="150" as="geometry" />
        </mxCell>
        <mxCell id="VMwAUEF3YJHCVkDwJJzr-87" value="" style="rounded=0;whiteSpace=wrap;html=1;direction=south;" parent="1" vertex="1">
          <mxGeometry x="650" y="1160" width="20" height="40" as="geometry" />
        </mxCell>
        <mxCell id="VMwAUEF3YJHCVkDwJJzr-88" value="" style="endArrow=classic;html=1;rounded=0;entryX=0.25;entryY=1;entryDx=0;entryDy=0;exitX=0.068;exitY=0.024;exitDx=0;exitDy=0;exitPerimeter=0;" parent="1" source="VMwAUEF3YJHCVkDwJJzr-86" target="VMwAUEF3YJHCVkDwJJzr-87" edge="1">
          <mxGeometry width="50" height="50" relative="1" as="geometry">
            <mxPoint x="110" y="1270" as="sourcePoint" />
            <mxPoint x="460" y="1100" as="targetPoint" />
          </mxGeometry>
        </mxCell>
        <mxCell id="VMwAUEF3YJHCVkDwJJzr-89" value="checkMedicationDosage()" style="text;html=1;strokeColor=none;fillColor=none;align=center;verticalAlign=middle;whiteSpace=wrap;rounded=0;" parent="1" vertex="1">
          <mxGeometry x="291" y="1148" width="157" height="21" as="geometry" />
        </mxCell>
        <mxCell id="VMwAUEF3YJHCVkDwJJzr-90" value="" style="rounded=0;whiteSpace=wrap;html=1;direction=south;" parent="1" vertex="1">
          <mxGeometry x="450" y="1210" width="20" height="100" as="geometry" />
        </mxCell>
        <mxCell id="VMwAUEF3YJHCVkDwJJzr-91" value="" style="endArrow=none;dashed=1;html=1;rounded=0;entryX=1;entryY=0.5;entryDx=0;entryDy=0;exitX=0;exitY=0.5;exitDx=0;exitDy=0;" parent="1" source="VMwAUEF3YJHCVkDwJJzr-90" target="VMwAUEF3YJHCVkDwJJzr-63" edge="1">
          <mxGeometry width="50" height="50" relative="1" as="geometry">
            <mxPoint x="400" y="1150" as="sourcePoint" />
            <mxPoint x="450" y="1100" as="targetPoint" />
          </mxGeometry>
        </mxCell>
        <mxCell id="VMwAUEF3YJHCVkDwJJzr-92" value="recordMedicationEffect()" style="text;html=1;strokeColor=none;fillColor=none;align=center;verticalAlign=middle;whiteSpace=wrap;rounded=0;" parent="1" vertex="1">
          <mxGeometry x="190" y="1240" width="160" height="15" as="geometry" />
        </mxCell>
        <mxCell id="VMwAUEF3YJHCVkDwJJzr-93" value="" style="endArrow=classic;html=1;rounded=0;entryX=0.5;entryY=1;entryDx=0;entryDy=0;exitX=0.67;exitY=-0.063;exitDx=0;exitDy=0;exitPerimeter=0;" parent="1" source="VMwAUEF3YJHCVkDwJJzr-86" target="VMwAUEF3YJHCVkDwJJzr-90" edge="1">
          <mxGeometry width="50" height="50" relative="1" as="geometry">
            <mxPoint x="100" y="1360" as="sourcePoint" />
            <mxPoint x="450" y="1100" as="targetPoint" />
          </mxGeometry>
        </mxCell>
        <mxCell id="VMwAUEF3YJHCVkDwJJzr-94" value="" style="endArrow=none;dashed=1;html=1;rounded=0;entryX=1;entryY=0.5;entryDx=0;entryDy=0;exitX=0;exitY=0.5;exitDx=0;exitDy=0;" parent="1" source="VMwAUEF3YJHCVkDwJJzr-87" target="VMwAUEF3YJHCVkDwJJzr-74" edge="1">
          <mxGeometry width="50" height="50" relative="1" as="geometry">
            <mxPoint x="400" y="1250" as="sourcePoint" />
            <mxPoint x="450" y="1200" as="targetPoint" />
          </mxGeometry>
        </mxCell>
        <mxCell id="VMwAUEF3YJHCVkDwJJzr-96" value="" style="endArrow=none;dashed=1;html=1;rounded=0;exitX=0;exitY=0.5;exitDx=0;exitDy=0;entryX=1;entryY=0.5;entryDx=0;entryDy=0;" parent="1" source="VMwAUEF3YJHCVkDwJJzr-86" target="VMwAUEF3YJHCVkDwJJzr-75" edge="1">
          <mxGeometry width="50" height="50" relative="1" as="geometry">
            <mxPoint x="400" y="1150" as="sourcePoint" />
            <mxPoint x="450" y="1100" as="targetPoint" />
          </mxGeometry>
        </mxCell>
        <mxCell id="VMwAUEF3YJHCVkDwJJzr-98" value="" style="endArrow=classic;html=1;rounded=0;exitX=0.75;exitY=0;exitDx=0;exitDy=0;entryX=0.75;entryY=1;entryDx=0;entryDy=0;" parent="1" source="VMwAUEF3YJHCVkDwJJzr-75" target="VMwAUEF3YJHCVkDwJJzr-74" edge="1">
          <mxGeometry width="50" height="50" relative="1" as="geometry">
            <mxPoint x="400" y="1150" as="sourcePoint" />
            <mxPoint x="450" y="1100" as="targetPoint" />
          </mxGeometry>
        </mxCell>
        <mxCell id="VMwAUEF3YJHCVkDwJJzr-99" value="UpdatePrescription()" style="text;html=1;strokeColor=none;fillColor=none;align=center;verticalAlign=middle;whiteSpace=wrap;rounded=0;" parent="1" vertex="1">
          <mxGeometry x="306" y="1054.5" width="127" height="21" as="geometry" />
        </mxCell>
        <mxCell id="VMwAUEF3YJHCVkDwJJzr-100" value="" style="endArrow=none;dashed=1;html=1;rounded=0;entryX=1.002;entryY=0.086;entryDx=0;entryDy=0;entryPerimeter=0;" parent="1" target="VMwAUEF3YJHCVkDwJJzr-35" edge="1">
          <mxGeometry width="50" height="50" relative="1" as="geometry">
            <mxPoint x="-90" y="379" as="sourcePoint" />
            <mxPoint x="510" y="270" as="targetPoint" />
          </mxGeometry>
        </mxCell>
        <mxCell id="VMwAUEF3YJHCVkDwJJzr-101" value="" style="endArrow=none;dashed=1;html=1;rounded=0;exitX=-0.001;exitY=0.158;exitDx=0;exitDy=0;exitPerimeter=0;" parent="1" source="VMwAUEF3YJHCVkDwJJzr-53" edge="1">
          <mxGeometry width="50" height="50" relative="1" as="geometry">
            <mxPoint x="460" y="630" as="sourcePoint" />
            <mxPoint x="1040" y="678" as="targetPoint" />
          </mxGeometry>
        </mxCell>
        <mxCell id="VMwAUEF3YJHCVkDwJJzr-103" value="" style="endArrow=none;dashed=1;html=1;rounded=0;exitX=0;exitY=0.357;exitDx=0;exitDy=0;exitPerimeter=0;entryX=1.001;entryY=0.357;entryDx=0;entryDy=0;entryPerimeter=0;" parent="1" source="VMwAUEF3YJHCVkDwJJzr-81" target="VMwAUEF3YJHCVkDwJJzr-81" edge="1">
          <mxGeometry width="50" height="50" relative="1" as="geometry">
            <mxPoint x="460" y="1150" as="sourcePoint" />
            <mxPoint x="510" y="1100" as="targetPoint" />
          </mxGeometry>
        </mxCell>
        <mxCell id="VMwAUEF3YJHCVkDwJJzr-104" value="" style="rounded=0;whiteSpace=wrap;html=1;direction=south;" parent="1" vertex="1">
          <mxGeometry x="848.5" y="310" width="23" height="60" as="geometry" />
        </mxCell>
        <mxCell id="VMwAUEF3YJHCVkDwJJzr-105" value="" style="endArrow=none;dashed=1;html=1;rounded=0;entryX=0.5;entryY=1;entryDx=0;entryDy=0;" parent="1" source="VMwAUEF3YJHCVkDwJJzr-104" target="VMwAUEF3YJHCVkDwJJzr-5" edge="1">
          <mxGeometry width="50" height="50" relative="1" as="geometry">
            <mxPoint x="450" y="440" as="sourcePoint" />
            <mxPoint x="500" y="390" as="targetPoint" />
          </mxGeometry>
        </mxCell>
        <mxCell id="VMwAUEF3YJHCVkDwJJzr-106" value="" style="endArrow=none;dashed=1;html=1;rounded=0;entryX=1;entryY=0.5;entryDx=0;entryDy=0;exitX=0.097;exitY=1.007;exitDx=0;exitDy=0;exitPerimeter=0;" parent="1" source="VMwAUEF3YJHCVkDwJJzr-81" target="VMwAUEF3YJHCVkDwJJzr-86" edge="1">
          <mxGeometry width="50" height="50" relative="1" as="geometry">
            <mxPoint x="450" y="1330" as="sourcePoint" />
            <mxPoint x="500" y="1280" as="targetPoint" />
          </mxGeometry>
        </mxCell>
        <mxCell id="VMwAUEF3YJHCVkDwJJzr-107" value="" style="endArrow=none;dashed=1;html=1;rounded=0;entryX=1;entryY=0.5;entryDx=0;entryDy=0;exitX=0.289;exitY=0.997;exitDx=0;exitDy=0;exitPerimeter=0;" parent="1" source="VMwAUEF3YJHCVkDwJJzr-81" target="VMwAUEF3YJHCVkDwJJzr-25" edge="1">
          <mxGeometry width="50" height="50" relative="1" as="geometry">
            <mxPoint x="450" y="890" as="sourcePoint" />
            <mxPoint x="500" y="840" as="targetPoint" />
          </mxGeometry>
        </mxCell>
        <mxCell id="VMwAUEF3YJHCVkDwJJzr-108" value="" style="endArrow=none;dashed=1;html=1;rounded=0;entryX=1;entryY=0.5;entryDx=0;entryDy=0;exitX=0.477;exitY=1.001;exitDx=0;exitDy=0;exitPerimeter=0;" parent="1" source="VMwAUEF3YJHCVkDwJJzr-81" target="VMwAUEF3YJHCVkDwJJzr-90" edge="1">
          <mxGeometry width="50" height="50" relative="1" as="geometry">
            <mxPoint x="460" y="1360" as="sourcePoint" />
            <mxPoint x="500" y="1140" as="targetPoint" />
          </mxGeometry>
        </mxCell>
        <mxCell id="VMwAUEF3YJHCVkDwJJzr-109" value="" style="endArrow=none;dashed=1;html=1;rounded=0;exitX=1;exitY=0.5;exitDx=0;exitDy=0;entryX=0.664;entryY=1.001;entryDx=0;entryDy=0;entryPerimeter=0;" parent="1" source="VMwAUEF3YJHCVkDwJJzr-87" target="VMwAUEF3YJHCVkDwJJzr-81" edge="1">
          <mxGeometry width="50" height="50" relative="1" as="geometry">
            <mxPoint x="450" y="1040" as="sourcePoint" />
            <mxPoint x="500" y="990" as="targetPoint" />
          </mxGeometry>
        </mxCell>
        <mxCell id="VMwAUEF3YJHCVkDwJJzr-110" value="" style="endArrow=classic;html=1;rounded=0;exitX=0.5;exitY=0;exitDx=0;exitDy=0;entryX=0.5;entryY=1;entryDx=0;entryDy=0;" parent="1" source="VMwAUEF3YJHCVkDwJJzr-25" target="VMwAUEF3YJHCVkDwJJzr-104" edge="1">
          <mxGeometry width="50" height="50" relative="1" as="geometry">
            <mxPoint x="450" y="440" as="sourcePoint" />
            <mxPoint x="840" y="340" as="targetPoint" />
          </mxGeometry>
        </mxCell>
        <mxCell id="VMwAUEF3YJHCVkDwJJzr-111" value="return" style="text;html=1;strokeColor=none;fillColor=none;align=center;verticalAlign=middle;whiteSpace=wrap;rounded=0;" parent="1" vertex="1">
          <mxGeometry x="523" y="320" width="70" height="11" as="geometry" />
        </mxCell>
        <mxCell id="VMwAUEF3YJHCVkDwJJzr-112" value="" style="endArrow=none;dashed=1;html=1;rounded=0;exitX=1;exitY=0.5;exitDx=0;exitDy=0;" parent="1" source="VMwAUEF3YJHCVkDwJJzr-104" target="VMwAUEF3YJHCVkDwJJzr-113" edge="1">
          <mxGeometry width="50" height="50" relative="1" as="geometry">
            <mxPoint x="450" y="590" as="sourcePoint" />
            <mxPoint x="500" y="540" as="targetPoint" />
          </mxGeometry>
        </mxCell>
        <mxCell id="VMwAUEF3YJHCVkDwJJzr-113" value="" style="rounded=0;whiteSpace=wrap;html=1;direction=south;" parent="1" vertex="1">
          <mxGeometry x="848.5" y="390" width="23" height="90" as="geometry" />
        </mxCell>
        <mxCell id="VMwAUEF3YJHCVkDwJJzr-114" value="" style="endArrow=classic;html=1;rounded=0;entryX=0.75;entryY=0;entryDx=0;entryDy=0;exitX=0.6;exitY=0.989;exitDx=0;exitDy=0;exitPerimeter=0;dashed=1;" parent="1" source="VMwAUEF3YJHCVkDwJJzr-113" target="VMwAUEF3YJHCVkDwJJzr-31" edge="1">
          <mxGeometry width="50" height="50" relative="1" as="geometry">
            <mxPoint x="490" y="439" as="sourcePoint" />
            <mxPoint x="500" y="540" as="targetPoint" />
          </mxGeometry>
        </mxCell>
        <mxCell id="VMwAUEF3YJHCVkDwJJzr-118" value="return" style="text;html=1;strokeColor=none;fillColor=none;align=center;verticalAlign=middle;whiteSpace=wrap;rounded=0;" parent="1" vertex="1">
          <mxGeometry x="670" y="430" width="70" height="11" as="geometry" />
        </mxCell>
        <mxCell id="VMwAUEF3YJHCVkDwJJzr-119" value="getMedicationID()" style="text;html=1;strokeColor=none;fillColor=none;align=center;verticalAlign=middle;whiteSpace=wrap;rounded=0;" parent="1" vertex="1">
          <mxGeometry x="570" y="585" width="129" height="20" as="geometry" />
        </mxCell>
        <mxCell id="VMwAUEF3YJHCVkDwJJzr-120" value="" style="rounded=0;whiteSpace=wrap;html=1;direction=south;" parent="1" vertex="1">
          <mxGeometry x="850" y="585" width="20" height="82.5" as="geometry" />
        </mxCell>
        <mxCell id="VMwAUEF3YJHCVkDwJJzr-121" value="" style="endArrow=classic;html=1;rounded=0;entryX=0.25;entryY=1;entryDx=0;entryDy=0;exitX=0.34;exitY=-0.062;exitDx=0;exitDy=0;exitPerimeter=0;" parent="1" source="VMwAUEF3YJHCVkDwJJzr-8" target="VMwAUEF3YJHCVkDwJJzr-120" edge="1">
          <mxGeometry width="50" height="50" relative="1" as="geometry">
            <mxPoint x="450" y="590" as="sourcePoint" />
            <mxPoint x="500" y="540" as="targetPoint" />
          </mxGeometry>
        </mxCell>
        <mxCell id="VMwAUEF3YJHCVkDwJJzr-122" value="" style="endArrow=classic;html=1;rounded=0;exitX=0.75;exitY=1;exitDx=0;exitDy=0;entryX=0.75;entryY=0;entryDx=0;entryDy=0;dashed=1;" parent="1" source="VMwAUEF3YJHCVkDwJJzr-120" target="VMwAUEF3YJHCVkDwJJzr-8" edge="1">
          <mxGeometry width="50" height="50" relative="1" as="geometry">
            <mxPoint x="450" y="590" as="sourcePoint" />
            <mxPoint x="500" y="540" as="targetPoint" />
          </mxGeometry>
        </mxCell>
        <mxCell id="VMwAUEF3YJHCVkDwJJzr-123" value="return" style="text;html=1;strokeColor=none;fillColor=none;align=center;verticalAlign=middle;whiteSpace=wrap;rounded=0;" parent="1" vertex="1">
          <mxGeometry x="593" y="630" width="70" height="11" as="geometry" />
        </mxCell>
        <mxCell id="VMwAUEF3YJHCVkDwJJzr-124" value="" style="endArrow=none;dashed=1;html=1;rounded=0;entryX=1;entryY=0.5;entryDx=0;entryDy=0;" parent="1" source="VMwAUEF3YJHCVkDwJJzr-120" target="VMwAUEF3YJHCVkDwJJzr-113" edge="1">
          <mxGeometry width="50" height="50" relative="1" as="geometry">
            <mxPoint x="450" y="590" as="sourcePoint" />
            <mxPoint x="500" y="540" as="targetPoint" />
          </mxGeometry>
        </mxCell>
        <mxCell id="VMwAUEF3YJHCVkDwJJzr-125" value="" style="rounded=0;whiteSpace=wrap;html=1;direction=south;" parent="1" vertex="1">
          <mxGeometry x="850" y="700" width="20" height="100" as="geometry" />
        </mxCell>
        <mxCell id="VMwAUEF3YJHCVkDwJJzr-126" value="" style="endArrow=none;dashed=1;html=1;rounded=0;entryX=1;entryY=0.5;entryDx=0;entryDy=0;exitX=0;exitY=0.5;exitDx=0;exitDy=0;" parent="1" source="VMwAUEF3YJHCVkDwJJzr-125" target="VMwAUEF3YJHCVkDwJJzr-120" edge="1">
          <mxGeometry width="50" height="50" relative="1" as="geometry">
            <mxPoint x="460" y="950" as="sourcePoint" />
            <mxPoint x="510" y="900" as="targetPoint" />
          </mxGeometry>
        </mxCell>
        <mxCell id="VMwAUEF3YJHCVkDwJJzr-127" value="" style="endArrow=classic;html=1;rounded=0;entryX=0.25;entryY=1;entryDx=0;entryDy=0;exitX=0.165;exitY=-0.129;exitDx=0;exitDy=0;exitPerimeter=0;" parent="1" source="VMwAUEF3YJHCVkDwJJzr-63" target="VMwAUEF3YJHCVkDwJJzr-125" edge="1">
          <mxGeometry width="50" height="50" relative="1" as="geometry">
            <mxPoint x="450" y="800" as="sourcePoint" />
            <mxPoint x="500" y="750" as="targetPoint" />
          </mxGeometry>
        </mxCell>
        <mxCell id="VMwAUEF3YJHCVkDwJJzr-128" value="getMedicationID()" style="text;html=1;strokeColor=none;fillColor=none;align=center;verticalAlign=middle;whiteSpace=wrap;rounded=0;" parent="1" vertex="1">
          <mxGeometry x="580" y="700" width="129" height="20" as="geometry" />
        </mxCell>
        <mxCell id="VMwAUEF3YJHCVkDwJJzr-129" value="" style="endArrow=classic;html=1;rounded=0;exitX=0.75;exitY=1;exitDx=0;exitDy=0;dashed=1;" parent="1" source="VMwAUEF3YJHCVkDwJJzr-125" edge="1">
          <mxGeometry width="50" height="50" relative="1" as="geometry">
            <mxPoint x="450" y="800" as="sourcePoint" />
            <mxPoint x="480" y="775" as="targetPoint" />
          </mxGeometry>
        </mxCell>
        <mxCell id="VMwAUEF3YJHCVkDwJJzr-130" value="return" style="text;html=1;strokeColor=none;fillColor=none;align=center;verticalAlign=middle;whiteSpace=wrap;rounded=0;" parent="1" vertex="1">
          <mxGeometry x="596" y="760" width="70" height="11" as="geometry" />
        </mxCell>
        <mxCell id="VMwAUEF3YJHCVkDwJJzr-131" value="" style="rounded=0;whiteSpace=wrap;html=1;direction=south;" parent="1" vertex="1">
          <mxGeometry x="850" y="820" width="20" height="80" as="geometry" />
        </mxCell>
        <mxCell id="VMwAUEF3YJHCVkDwJJzr-132" value="" style="endArrow=classic;html=1;rounded=0;entryX=0.5;entryY=1;entryDx=0;entryDy=0;exitX=0.5;exitY=0;exitDx=0;exitDy=0;" parent="1" source="VMwAUEF3YJHCVkDwJJzr-69" target="VMwAUEF3YJHCVkDwJJzr-131" edge="1">
          <mxGeometry width="50" height="50" relative="1" as="geometry">
            <mxPoint x="450" y="940" as="sourcePoint" />
            <mxPoint x="500" y="890" as="targetPoint" />
          </mxGeometry>
        </mxCell>
        <mxCell id="VMwAUEF3YJHCVkDwJJzr-133" value="Update" style="text;html=1;strokeColor=none;fillColor=none;align=center;verticalAlign=middle;whiteSpace=wrap;rounded=0;" parent="1" vertex="1">
          <mxGeometry x="720" y="840" width="60" height="20" as="geometry" />
        </mxCell>
        <mxCell id="VMwAUEF3YJHCVkDwJJzr-134" value="" style="endArrow=none;dashed=1;html=1;rounded=0;entryX=1;entryY=0.5;entryDx=0;entryDy=0;exitX=0;exitY=0.5;exitDx=0;exitDy=0;" parent="1" source="VMwAUEF3YJHCVkDwJJzr-131" target="VMwAUEF3YJHCVkDwJJzr-125" edge="1">
          <mxGeometry width="50" height="50" relative="1" as="geometry">
            <mxPoint x="450" y="660" as="sourcePoint" />
            <mxPoint x="500" y="610" as="targetPoint" />
          </mxGeometry>
        </mxCell>
        <mxCell id="VMwAUEF3YJHCVkDwJJzr-135" value="" style="rounded=0;whiteSpace=wrap;html=1;direction=south;" parent="1" vertex="1">
          <mxGeometry x="850.75" y="1022.5" width="18.5" height="75" as="geometry" />
        </mxCell>
        <mxCell id="VMwAUEF3YJHCVkDwJJzr-136" value="" style="endArrow=none;dashed=1;html=1;rounded=0;entryX=1;entryY=0.5;entryDx=0;entryDy=0;exitX=0;exitY=0.5;exitDx=0;exitDy=0;" parent="1" source="VMwAUEF3YJHCVkDwJJzr-135" target="VMwAUEF3YJHCVkDwJJzr-131" edge="1">
          <mxGeometry width="50" height="50" relative="1" as="geometry">
            <mxPoint x="450" y="1080" as="sourcePoint" />
            <mxPoint x="500" y="1030" as="targetPoint" />
          </mxGeometry>
        </mxCell>
        <mxCell id="VMwAUEF3YJHCVkDwJJzr-137" value="" style="endArrow=classic;html=1;rounded=0;exitX=0.5;exitY=0;exitDx=0;exitDy=0;entryX=0.5;entryY=1;entryDx=0;entryDy=0;" parent="1" source="VMwAUEF3YJHCVkDwJJzr-74" target="VMwAUEF3YJHCVkDwJJzr-135" edge="1">
          <mxGeometry width="50" height="50" relative="1" as="geometry">
            <mxPoint x="450" y="940" as="sourcePoint" />
            <mxPoint x="500" y="890" as="targetPoint" />
          </mxGeometry>
        </mxCell>
        <mxCell id="VMwAUEF3YJHCVkDwJJzr-138" value="Update" style="text;html=1;strokeColor=none;fillColor=none;align=center;verticalAlign=middle;whiteSpace=wrap;rounded=0;" parent="1" vertex="1">
          <mxGeometry x="730" y="1040" width="60" height="20" as="geometry" />
        </mxCell>
        <mxCell id="VMwAUEF3YJHCVkDwJJzr-139" value="" style="rounded=0;whiteSpace=wrap;html=1;direction=south;" parent="1" vertex="1">
          <mxGeometry x="850" y="1155" width="20" height="145" as="geometry" />
        </mxCell>
        <mxCell id="VMwAUEF3YJHCVkDwJJzr-140" value="" style="endArrow=none;dashed=1;html=1;rounded=0;entryX=1;entryY=0.5;entryDx=0;entryDy=0;" parent="1" source="VMwAUEF3YJHCVkDwJJzr-139" target="VMwAUEF3YJHCVkDwJJzr-135" edge="1">
          <mxGeometry width="50" height="50" relative="1" as="geometry">
            <mxPoint x="450" y="1220" as="sourcePoint" />
            <mxPoint x="500" y="1170" as="targetPoint" />
          </mxGeometry>
        </mxCell>
        <mxCell id="VMwAUEF3YJHCVkDwJJzr-141" value="" style="endArrow=none;dashed=1;html=1;rounded=0;entryX=1;entryY=0.5;entryDx=0;entryDy=0;exitX=0.85;exitY=0.998;exitDx=0;exitDy=0;exitPerimeter=0;" parent="1" source="VMwAUEF3YJHCVkDwJJzr-81" target="VMwAUEF3YJHCVkDwJJzr-139" edge="1">
          <mxGeometry width="50" height="50" relative="1" as="geometry">
            <mxPoint x="860" y="1360" as="sourcePoint" />
            <mxPoint x="500" y="1170" as="targetPoint" />
          </mxGeometry>
        </mxCell>
        <mxCell id="VMwAUEF3YJHCVkDwJJzr-142" value="" style="endArrow=classic;html=1;rounded=0;entryX=0.5;entryY=0;entryDx=0;entryDy=0;dashed=1;" parent="1" target="VMwAUEF3YJHCVkDwJJzr-87" edge="1">
          <mxGeometry width="50" height="50" relative="1" as="geometry">
            <mxPoint x="850" y="1180" as="sourcePoint" />
            <mxPoint x="500" y="1030" as="targetPoint" />
          </mxGeometry>
        </mxCell>
        <mxCell id="VMwAUEF3YJHCVkDwJJzr-143" value="" style="endArrow=classic;html=1;rounded=0;exitX=0.7;exitY=0;exitDx=0;exitDy=0;exitPerimeter=0;" parent="1" source="VMwAUEF3YJHCVkDwJJzr-90" edge="1">
          <mxGeometry width="50" height="50" relative="1" as="geometry">
            <mxPoint x="480" y="1280" as="sourcePoint" />
            <mxPoint x="850" y="1280" as="targetPoint" />
          </mxGeometry>
        </mxCell>
        <mxCell id="VMwAUEF3YJHCVkDwJJzr-144" value="Update" style="text;html=1;strokeColor=none;fillColor=none;align=center;verticalAlign=middle;whiteSpace=wrap;rounded=0;" parent="1" vertex="1">
          <mxGeometry x="699" y="1260" width="60" height="20" as="geometry" />
        </mxCell>
        <mxCell id="VMwAUEF3YJHCVkDwJJzr-146" value="return" style="text;html=1;strokeColor=none;fillColor=none;align=center;verticalAlign=middle;whiteSpace=wrap;rounded=0;" parent="1" vertex="1">
          <mxGeometry x="730" y="1158" width="70" height="22" as="geometry" />
        </mxCell>
      </root>
    </mxGraphModel>
  </diagram>
</mxfile>
